Coordinates
version=1
nRows=13
nColumns=36
inDegrees=yes

Units are S.I. units (second, meters, Newtons, ...)
If the header above contains a line with 'inDegrees', this indicates whether rotational values are in degrees (yes) or radians (no).

endheader
time	pelvis_tilt	pelvis_list	pelvis_rotation	pelvis_tx	pelvis_ty	pelvis_tz	hip_flexion_r	hip_adduction_r	hip_rotation_r	knee_angle_r	knee_angle_r_beta	ankle_angle_r	subtalar_angle_r	mtp_angle_r	hip_flexion_l	hip_adduction_l	hip_rotation_l	knee_angle_l	knee_angle_l_beta	ankle_angle_l	subtalar_angle_l	mtp_angle_l	lumbar_extension	lumbar_bending	lumbar_rotation	arm_flex_r	arm_add_r	arm_rot_r	elbow_flex_r	pro_sup_r	arm_flex_l	arm_add_l	arm_rot_l	elbow_flex_l	pro_sup_l
      3.38750000	    -13.23309322	      2.14021662	     -1.25152356	      0.09382944	      0.80958795	     -0.13558996	     69.71412246	    -12.64972776	     -2.95879062	     77.84230501	      1.35860452	     21.30164760	    -21.39016097	     -7.49999987	     69.57807554	     -6.60664933	     -4.85816817	     77.14919814	      1.34650752	     14.74560474	    -22.87156957	     -7.49999987	    -50.00330054	      6.91986249	     -2.27172137	     31.84030560	    -14.76436604	      3.53605112	     58.06908429	     87.23056175	     28.11643950	    -17.51519173	     10.85064947	     60.21049389	     76.62811295
      3.39166670	    -13.77830244	      2.10617582	     -1.17569801	      0.09743937	      0.80597440	     -0.13468606	     70.34260357	    -12.99618145	     -3.07684101	     78.10566232	      1.36320097	     21.59568152	    -20.78508022	     -7.49999987	     70.28798735	     -6.42682064	     -4.71033252	     77.45021242	      1.35176121	     14.81735741	    -23.03616292	     -7.49999987	    -50.27074827	      7.17579315	     -2.45194798	     32.60708640	    -14.97151251	      3.86702094	     58.93161482	     87.43877646	     28.85666124	    -17.83961524	     10.78928331	     60.43547473	     76.75747559
      3.39583330	    -14.01525343	      2.09880461	     -1.24317087	      0.10035344	      0.80381163	     -0.13623025	     70.62545029	    -13.17912873	     -3.01489524	     78.39333389	      1.36822179	     21.84330388	    -20.54566905	     -7.49999987	     70.58775030	     -6.43015695	     -4.70887982	     77.81778649	      1.35817659	     15.15543963	    -22.97292126	     -7.49999987	    -50.69417310	      7.24681010	     -2.45949373	     33.25020559	    -15.09266863	      3.89435472	     59.36835838	     87.03690787	     29.54495044	    -18.06383475	     10.64945919	     60.64411824	     76.48906385
      3.40000000	    -14.46099637	      1.92925998	     -1.05912848	      0.09740363	      0.80225265	     -0.13439732	     71.22017912	    -13.41937026	     -3.22086131	     78.83118631	      1.37586375	     22.45487029	    -19.45702550	     -7.49999987	     71.36054744	     -6.37018156	     -4.48471144	     78.23667227	      1.36548753	     15.15327317	    -23.21331685	     -7.49999987	    -50.91083303	      7.64041312	     -2.66568586	     33.85933331	    -15.22261600	      4.70562157	     60.60475132	     87.29711704	     30.29401072	    -18.71547266	     10.91554182	     60.74895895	     76.61296519
      3.40416670	    -14.71722731	      1.80828992	     -1.03045022	      0.09827877	      0.79793199	     -0.13623464	     71.81487760	    -13.54135316	     -3.26987433	     79.45395434	      1.38673311	     22.81321329	    -18.94818538	     -7.49999987	     71.98706537	     -6.47765436	     -4.44761698	     78.71921575	      1.37390950	     15.41614494	    -23.13822246	     -7.49999987	    -51.19715470	      7.76175584	     -2.59922779	     34.52581661	    -15.59548320	      5.42287279	     61.25244846	     87.29272641	     31.19916998	    -19.17919999	     11.42000422	     60.93862413	     76.59837306
      3.40833330	    -14.95537287	      1.65306530	     -1.04100290	      0.09859070	      0.79763634	     -0.13471458	     72.15135819	    -13.45346095	     -3.46063018	     79.71524934	      1.39129357	     22.87251600	    -18.62599705	     -7.49999987	     72.36405422	     -6.74076195	     -4.39460928	     78.90464944	      1.37714593	     15.67987279	    -22.64567927	     -7.49999987	    -51.63314449	      7.77075546	     -2.52601366	     35.28714805	    -15.52705827	      5.47357346	     61.73286531	     86.67777542	     32.19341271	    -19.54548600	     11.39519911	     61.18097263	     76.19946325
      3.41250000	    -15.19430182	      1.55827477	     -1.01004698	      0.10293124	      0.79640447	     -0.13762081	     72.37965430	    -13.47981128	     -3.51273191	     79.94128142	      1.39523857	     22.88264470	    -18.43665877	     -7.49999987	     72.72897670	     -6.85038547	     -4.44393224	     79.20890752	      1.38245623	     15.55673181	    -22.60010815	     -7.49999987	    -51.92644434	      7.79193804	     -2.54113354	     35.97085094	    -15.54870963	      5.52231885	     61.96402978	     86.70965695	     32.98244385	    -19.78811693	     11.44290461	     61.26186478	     76.20987420
      3.41666670	    -15.44652234	      1.23251873	     -1.11218279	      0.09784808	      0.79579580	     -0.13549259	     72.64713661	    -13.24568217	     -3.85746994	     79.94645823	      1.39532892	     23.07433975	    -17.92513781	     -7.49999987	     73.17209309	     -7.15512499	     -4.19212916	     79.39674441	      1.38573461	     15.51091291	    -22.39574940	     -7.49999987	    -52.36717475	      7.86184852	     -2.37185774	     36.84113718	    -15.74052282	      6.19480881	     62.70563609	     86.89307863	     34.06204696	    -20.64599959	     12.63158937	     61.48601988	     76.29405977
      3.42083330	    -15.56498803	      1.11325226	     -1.06504228	      0.10203227	      0.79185943	     -0.13152273	     73.01712588	    -13.17745317	     -4.00155145	     80.49837209	      1.40496164	     23.19686174	    -18.06732516	     -7.49999987	     73.48415711	     -7.23840770	     -3.86499445	     79.73336614	      1.39160976	     15.48940234	    -22.37127233	     -7.49999987	    -52.75084005	      7.70377416	     -2.27734582	     37.41969310	    -15.69722590	      6.22104226	     62.83921451	     86.91329079	     35.04614969	    -20.94850595	     12.58478623	     61.63098304	     76.28455512
      3.42500000	    -15.71223621	      0.81227511	     -1.13936506	      0.09991450	      0.79274997	     -0.13257286	     73.07410790	    -12.83935767	     -4.23025039	     80.46206774	      1.40432801	     23.18961197	    -18.21149205	     -7.49999987	     73.86320439	     -7.48798263	     -3.46834160	     79.99530358	      1.39618143	     15.70954981	    -22.01661890	     -7.49999987	    -53.17984798	      7.57440577	     -1.59052622	     37.83499285	    -16.23704238	      6.44183192	     63.43594739	     86.95996502	     36.87619063	    -21.66207321	     15.38529445	     61.27451742	     75.61785116
      3.42916670	    -15.80932424	      0.79146722	     -1.22694881	      0.10668040	      0.78919076	     -0.13743761	     73.26678364	    -13.02849895	     -4.21314393	     80.83832248	      1.41089489	     23.30608085	    -18.33797874	     -7.49999987	     74.00728325	     -7.45308873	     -3.33894772	     80.28062529	      1.40116124	     15.88227495	    -22.11517528	     -7.49999987	    -53.41108076	      7.63791692	     -1.52775999	     38.37786619	    -16.26345798	      6.39353763	     63.50877689	     86.96861869	     37.41874927	    -21.76310045	     15.31995163	     61.31536908	     75.59680960
      3.43333330	    -15.95885303	      0.79804384	     -1.21758875	      0.10585593	      0.78796882	     -0.13744676	     73.41586268	    -13.18905433	     -4.07872912	     81.02007484	      1.41406707	     23.42975074	    -18.31894860	     -7.49999987	     74.28352050	     -7.24461563	     -3.20581490	     80.69291664	      1.40835708	     16.21669263	    -22.26856176	     -7.49999987	    -53.68576338	      7.69640134	     -1.49667011	     38.98708369	    -16.33581716	      6.37543006	     63.61764901	     86.67159035	     38.15459867	    -21.95413151	     15.28353536	     61.41201912	     75.38832645
      3.43750000	    -16.15976258	      0.63976522	     -0.95494447	      0.10268211	      0.78563890	     -0.13846267	     73.73970437	    -13.66341843	     -4.30988219	     81.33859612	      1.41962631	     24.05815257	    -17.82551161	     -7.49999987	     74.89595866	     -6.79306272	     -2.87051685	     81.17443173	      1.41676110	     16.64523564	    -22.49287630	     -7.49999987	    -53.72032984	      8.11890243	     -1.52978955	     39.81724174	    -16.60131167	      7.08384517	     63.44223966	     86.70995506	     39.22427049	    -22.32130879	     16.37793424	     60.97594502	     75.27823779
